<svg width="407" height="405" viewBox="0 0 407 405" fill="none" xmlns="http://www.w3.org/2000/svg">
<path d="M83.5145 258.574L82.9781 257.73L82.1341 258.266L82.6705 259.11L83.5145 258.574ZM111.953 240.499L112.797 239.963L112.26 239.119L111.416 239.655L111.953 240.499ZM116.355 247.426L116.892 248.27L117.736 247.734L117.199 246.89L116.355 247.426ZM99.3006 258.266L98.7642 257.422L99.5083 259.244L99.3006 258.266ZM120.398 253.787L121.242 253.25L120.869 252.664L120.19 252.808L120.398 253.787ZM123.951 259.377L124.749 259.979L125.167 259.426L124.795 258.841L123.951 259.377ZM110.924 276.643L110.125 276.041L111.46 277.487L110.924 276.643ZM128.019 265.778L128.863 265.241L128.327 264.397L127.483 264.934L128.019 265.778ZM132.422 272.705L132.958 273.549L133.802 273.012L133.266 272.168L132.422 272.705ZM103.984 290.779L103.14 291.316L103.676 292.16L104.52 291.623L103.984 290.779ZM98.7826 282.596L97.9685 282.016L97.5773 282.564L97.9387 283.133L98.7826 282.596ZM113.398 262.103L114.213 262.683L115.652 260.664L113.215 261.12L113.398 262.103ZM88.6897 266.716L87.8457 267.253L88.2085 267.823L88.8732 267.699L88.6897 266.716ZM84.0509 259.418L112.489 241.343L111.416 239.655L82.9781 257.73L84.0509 259.418ZM111.109 241.036L115.511 247.963L117.199 246.89L112.797 239.963L111.109 241.036ZM115.819 246.582L98.7642 257.422L99.837 259.11L116.892 248.27L115.819 246.582ZM99.5083 259.244L120.605 254.765L120.19 252.808L99.0929 257.288L99.5083 259.244ZM119.554 254.323L123.107 259.913L124.795 258.841L121.242 253.25L119.554 254.323ZM123.153 258.775L110.125 276.041L111.722 277.245L124.749 259.979L123.153 258.775ZM111.46 277.487L128.555 266.621L127.483 264.934L110.387 275.799L111.46 277.487ZM127.175 266.314L131.578 273.241L133.266 272.168L128.863 265.241L127.175 266.314ZM131.885 271.861L103.447 289.935L104.52 291.623L132.958 273.549L131.885 271.861ZM104.828 290.243L99.6266 282.06L97.9387 283.133L103.14 291.316L104.828 290.243ZM99.5968 283.177L114.213 262.683L112.584 261.522L97.9685 282.016L99.5968 283.177ZM113.215 261.12L88.5061 265.733L88.8732 267.699L113.582 263.086L113.215 261.12ZM89.5336 266.18L84.3584 258.037L82.6705 259.11L87.8457 267.253L89.5336 266.18Z" fill="black"/>
<path d="M88.7787 232.093L88.4308 233.031L88.4424 233.035L88.7787 232.093ZM83.5224 228.397L84.3043 227.774L83.5224 228.397ZM81.7483 217.585L82.6752 217.96L82.6786 217.952L81.7483 217.585ZM84.3744 213.949L84.9923 214.735L87.7701 212.552L84.2602 212.956L84.3744 213.949ZM80.6072 214.382L79.6137 214.496L79.7279 215.49L80.7213 215.376L80.6072 214.382ZM79.67 206.228L79.5558 205.234L78.5624 205.348L78.6766 206.342L79.67 206.228ZM106.279 203.17L107.272 203.056L107.158 202.062L106.165 202.176L106.279 203.17ZM107.216 211.324L107.33 212.318L108.324 212.203L108.209 211.21L107.216 211.324ZM103.449 211.757L103.335 210.764L99.944 211.153L103.009 212.655L103.449 211.757ZM106.837 214.75L106.014 215.318L106.019 215.326L106.837 214.75ZM107.556 225.635L108.454 226.076L108.459 226.065L107.556 225.635ZM103.228 230.432L103.764 231.277L103.772 231.272L103.779 231.267L103.228 230.432ZM89.2926 215.123L90.0583 215.767L90.0672 215.756L89.2926 215.123ZM90.2407 223.373L89.6297 224.165L89.63 224.165L90.2407 223.373ZM99.8733 222.266L100.63 222.919L100.639 222.909L100.648 222.898L99.8733 222.266ZM98.9252 214.016L98.3142 214.808L98.3254 214.816L98.9252 214.016ZM96.0405 231.798C93.4304 232.098 91.1296 231.871 89.1151 231.151L88.4424 233.035C90.7945 233.875 93.4109 234.113 96.2689 233.785L96.0405 231.798ZM89.1266 231.155C87.092 230.4 85.4966 229.269 84.3043 227.774L82.7404 229.02C84.1826 230.829 86.0915 232.162 88.4308 233.03L89.1266 231.155ZM84.3043 227.774C83.1092 226.274 82.3935 224.53 82.1618 222.514L80.1748 222.742C80.4473 225.113 81.3009 227.215 82.7404 229.02L84.3043 227.774ZM82.1618 222.514C81.9619 220.775 82.146 219.266 82.6751 217.96L80.8215 217.209C80.1461 218.876 79.9436 220.73 80.1748 222.742L82.1618 222.514ZM82.6786 217.952C83.2197 216.579 83.995 215.519 84.9923 214.735L83.7565 213.163C82.4494 214.19 81.474 215.554 80.818 217.218L82.6786 217.952ZM84.2602 212.956L80.493 213.389L80.7213 215.376L84.4885 214.943L84.2602 212.956ZM81.6006 214.268L80.6635 206.114L78.6766 206.342L79.6137 214.496L81.6006 214.268ZM79.7842 207.221L106.393 204.163L106.165 202.176L79.5558 205.234L79.7842 207.221ZM105.285 203.284L106.223 211.438L108.209 211.21L107.272 203.056L105.285 203.284ZM107.102 210.331L103.335 210.764L103.563 212.75L107.33 212.318L107.102 210.331ZM103.009 212.655C104.171 213.225 105.174 214.101 106.014 215.318L107.66 214.182C106.645 212.712 105.389 211.594 103.889 210.859L103.009 212.655ZM106.019 215.326C106.831 216.478 107.352 217.905 107.552 219.644L109.539 219.416C109.308 217.403 108.69 215.644 107.654 214.174L106.019 215.326ZM107.552 219.644C107.78 221.626 107.478 223.471 106.653 225.205L108.459 226.065C109.45 223.982 109.808 221.758 109.539 219.416L107.552 219.644ZM106.659 225.194C105.805 226.931 104.488 228.4 102.676 229.598L103.779 231.267C105.859 229.892 107.428 228.162 108.454 226.076L106.659 225.194ZM102.691 229.588C100.858 230.753 98.6501 231.498 96.0405 231.798L96.2689 233.785C99.1273 233.456 101.635 232.629 103.764 231.277L102.691 229.588ZM93.7974 211.86C91.5695 212.116 89.7648 212.964 88.518 214.491L90.0672 215.756C90.9098 214.724 92.1845 214.058 94.0258 213.847L93.7974 211.86ZM88.5269 214.48C87.3015 215.939 86.7884 217.647 87.006 219.541L88.993 219.313C88.838 217.964 89.1869 216.804 90.0582 215.767L88.5269 214.48ZM87.006 219.541C87.2236 221.434 88.1112 222.993 89.6297 224.165L90.8516 222.581C89.7546 221.735 89.1481 220.662 88.993 219.313L87.006 219.541ZM89.63 224.165C91.161 225.345 93.0963 225.742 95.3153 225.487L95.0869 223.501C93.2367 223.713 91.8651 223.363 90.8513 222.581L89.63 224.165ZM95.3153 225.487C97.537 225.232 99.3493 224.404 100.63 222.919L99.1163 221.613C98.2369 222.631 96.9345 223.288 95.0869 223.501L95.3153 225.487ZM100.648 222.898C101.861 221.413 102.372 219.694 102.154 217.8L100.167 218.029C100.323 219.378 99.975 220.56 99.0987 221.634L100.648 222.898ZM102.154 217.8C101.937 215.906 101.049 214.359 99.5249 213.216L98.3254 214.816C99.4093 215.629 100.012 216.68 100.167 218.029L102.154 217.8ZM99.5361 213.225C97.9753 212.02 96.0254 211.604 93.7974 211.86L94.0258 213.847C95.867 213.635 97.2595 213.994 98.3142 214.808L99.5361 213.225Z" fill="black"/>
<path d="M87.1227 187.042L86.4443 187.776L86.4534 187.785L87.1227 187.042ZM83.667 181.624L84.6272 181.345L83.667 181.624ZM86.0529 171.075L86.7859 171.756L86.7918 171.749L86.0529 171.075ZM89.8574 168.56L90.1646 169.512L93.3077 168.497L90.1296 167.598L89.8574 168.56ZM77.895 165.175L76.9327 164.903L76.6605 165.865L77.6227 166.138L77.895 165.175ZM80.1295 157.277L80.4017 156.315L79.4395 156.043L79.1673 157.005L80.1295 157.277ZM114.308 166.947L115.27 167.22L115.542 166.257L114.58 165.985L114.308 166.947ZM112.073 174.845L111.801 175.808L112.763 176.08L113.036 175.118L112.073 174.845ZM108.378 173.8L108.651 172.838L105.177 171.855L107.65 174.485L108.378 173.8ZM110.433 177.823L109.456 178.036L109.458 178.045L110.433 177.823ZM106.945 188.21L107.607 188.96L107.617 188.951L106.945 188.21ZM101.117 191.001L101.292 191.986L101.301 191.984L101.31 191.982L101.117 191.001ZM94.0518 171.542L94.5154 172.429L94.5277 172.422L94.0518 171.542ZM91.7912 179.533L90.925 180.033L90.9252 180.033L91.7912 179.533ZM101.121 182.172L101.573 183.065L101.585 183.059L101.597 183.052L101.121 182.172ZM103.382 174.182L102.515 174.682L102.523 174.694L103.382 174.182ZM93.951 189.53C91.423 188.815 89.3814 187.73 87.7919 186.298L86.4534 187.785C88.3093 189.456 90.6384 190.672 93.4065 191.455L93.951 189.53ZM87.801 186.307C86.2064 184.835 85.1611 183.182 84.6272 181.345L82.7067 181.903C83.3525 184.125 84.611 186.084 86.4443 187.776L87.801 186.307ZM84.6272 181.345C84.0921 179.504 84.0936 177.618 84.6461 175.666L82.7216 175.121C82.0719 177.418 82.0622 179.686 82.7067 181.903L84.6272 181.345ZM84.6461 175.666C85.0861 174.111 85.8026 172.815 86.7858 171.756L85.32 170.395C84.1029 171.706 83.24 173.289 82.7216 175.121L84.6461 175.666ZM86.7918 171.749C87.7952 170.649 88.9186 169.914 90.1646 169.512L89.5502 167.608C87.9414 168.128 86.5285 169.07 85.314 170.401L86.7918 171.749ZM90.1296 167.598L78.1672 164.213L77.6227 166.138L89.5851 169.522L90.1296 167.598ZM78.8572 165.448L81.0917 157.55L79.1673 157.005L76.9327 164.903L78.8572 165.448ZM79.8573 158.24L114.036 167.91L114.58 165.985L80.4017 156.315L79.8573 158.24ZM113.346 166.675L111.111 174.573L113.036 175.118L115.27 167.22L113.346 166.675ZM112.346 173.883L108.651 172.838L108.106 174.762L111.801 175.808L112.346 173.883ZM107.65 174.485C108.537 175.428 109.143 176.601 109.456 178.036L111.41 177.611C111.028 175.856 110.265 174.347 109.107 173.115L107.65 174.485ZM109.458 178.045C109.77 179.419 109.71 180.938 109.233 182.622L111.157 183.166C111.709 181.217 111.807 179.355 111.408 177.601L109.458 178.045ZM109.233 182.622C108.681 184.575 107.694 186.182 106.274 187.469L107.617 188.951C109.328 187.4 110.508 185.463 111.157 183.166L109.233 182.622ZM106.283 187.461C104.832 188.743 103.056 189.601 100.924 190.02L101.31 191.982C103.756 191.501 105.866 190.499 107.607 188.959L106.283 187.461ZM100.943 190.016C98.8039 190.396 96.4786 190.246 93.951 189.53L93.4065 191.455C96.175 192.238 98.8088 192.427 101.292 191.986L100.943 190.016ZM99.4594 170.237C97.3015 169.627 95.31 169.725 93.576 170.663L94.5277 172.422C95.6995 171.788 97.1315 171.657 98.9149 172.162L99.4594 170.237ZM93.5884 170.656C91.9003 171.539 90.7759 172.924 90.2569 174.759L92.1813 175.303C92.5509 173.997 93.3151 173.056 94.5153 172.429L93.5884 170.656ZM90.2569 174.759C89.7381 176.593 89.9663 178.371 90.925 180.033L92.6573 179.033C91.9647 177.833 91.8116 176.61 92.1813 175.303L90.2569 174.759ZM90.9252 180.033C91.8921 181.707 93.531 182.81 95.6803 183.418L96.2247 181.494C94.4327 180.987 93.2974 180.141 92.6571 179.033L90.9252 180.033ZM95.6803 183.418C97.8321 184.027 99.8234 183.95 101.573 183.065L100.669 181.28C99.4686 181.888 98.0142 182 96.2247 181.494L95.6803 183.418ZM101.597 183.052C103.284 182.139 104.41 180.744 104.929 178.91L103.005 178.365C102.635 179.673 101.864 180.634 100.645 181.293L101.597 183.052ZM104.929 178.91C105.448 177.076 105.216 175.307 104.241 173.67L102.523 174.694C103.216 175.858 103.374 177.059 103.005 178.365L104.929 178.91ZM104.248 173.682C103.262 171.975 101.617 170.848 99.4594 170.237L98.9149 172.162C100.698 172.666 101.85 173.528 102.515 174.682L104.248 173.682Z" fill="black"/>
<path d="M114.329 120.106L114.947 119.32L114.16 118.702L113.542 119.488L114.329 120.106ZM135.391 136.652L136.178 137.269L136.795 136.483L136.009 135.865L135.391 136.652ZM130.321 143.106L129.703 143.893L130.49 144.51L131.107 143.724L130.321 143.106ZM127.452 140.853L128.07 140.066L125.583 138.113L126.495 141.141L127.452 140.853ZM127.612 145.312L128.591 145.513L128.593 145.504L127.612 145.312ZM121.129 153.098L121.491 154.031L121.498 154.028L121.505 154.025L121.129 153.098ZM115.742 153.506L115.541 154.486L115.742 153.506ZM97.8426 141.093L97.0562 140.475L96.4385 141.262L97.2248 141.88L97.8426 141.093ZM102.883 134.676L103.501 133.89L102.715 133.272L102.097 134.059L102.883 134.676ZM118.464 145.146L118.55 146.142L118.55 146.142L118.464 145.146ZM109.258 126.561L108.472 125.943L107.854 126.729L108.641 127.347L109.258 126.561ZM113.711 120.893L134.774 137.438L136.009 135.865L114.947 119.32L113.711 120.893ZM134.605 136.034L129.535 142.489L131.107 143.724L136.178 137.269L134.605 136.034ZM130.939 142.32L128.07 140.066L126.834 141.639L129.703 143.893L130.939 142.32ZM126.495 141.141C126.86 142.353 126.914 143.673 126.63 145.12L128.593 145.504C128.931 143.776 128.879 142.124 128.41 140.565L126.495 141.141ZM126.632 145.111C126.35 146.487 125.731 147.797 124.75 149.046L126.323 150.281C127.476 148.812 128.241 147.221 128.591 145.513L126.632 145.111ZM124.75 149.046C123.578 150.538 122.244 151.566 120.752 152.172L121.505 154.025C123.36 153.272 124.965 152.01 126.323 150.281L124.75 149.046ZM120.767 152.166C119.258 152.752 117.659 152.878 115.943 152.526L115.541 154.486C117.61 154.91 119.602 154.764 121.491 154.031L120.767 152.166ZM115.943 152.526C114.231 152.175 112.506 151.34 110.766 149.973L109.53 151.546C111.464 153.065 113.468 154.061 115.541 154.486L115.943 152.526ZM110.766 149.973L98.4603 140.307L97.2248 141.88L109.53 151.546L110.766 149.973ZM98.629 141.711L103.67 135.294L102.097 134.059L97.0562 140.475L98.629 141.711ZM102.266 135.463L113.703 144.447L114.938 142.874L103.501 133.89L102.266 135.463ZM113.703 144.447C115.246 145.659 116.872 146.287 118.55 146.142L118.378 144.149C117.35 144.238 116.213 143.876 114.938 142.874L113.703 144.447ZM118.55 146.142C120.223 145.997 121.623 145.152 122.734 143.738L121.161 142.503C120.334 143.555 119.412 144.06 118.378 144.149L118.55 146.142ZM122.734 143.738C123.86 142.305 124.364 140.732 124.108 139.067L122.131 139.372C122.288 140.392 122.011 141.42 121.161 142.503L122.734 143.738ZM124.108 139.067C123.851 137.402 122.857 135.971 121.313 134.759L120.078 136.332C121.353 137.333 121.974 138.352 122.131 139.372L124.108 139.067ZM121.313 134.759L109.876 125.774L108.641 127.347L120.078 136.332L121.313 134.759ZM110.045 127.179L115.115 120.724L113.542 119.488L108.472 125.943L110.045 127.179Z" fill="black"/>
<path d="M157.764 121.395L157.363 122.311L157.83 122.515L158.27 122.257L157.764 121.395ZM145.044 115.831L145.445 114.915L142.625 113.682L144.182 116.337L145.044 115.831ZM150.724 125.521L151.23 126.384L152.093 125.878L151.587 125.015L150.724 125.521ZM143.643 129.672L142.781 130.178L143.286 131.04L144.149 130.535L143.643 129.672ZM125.681 99.0284L125.175 98.1657L124.313 98.6714L124.818 99.5341L125.681 99.0284ZM132.762 94.8776L133.625 94.3719L133.119 93.5092L132.256 94.0149L132.762 94.8776ZM142.69 111.814L141.827 112.32L143.353 114.924L143.684 111.924L142.69 111.814ZM144.178 98.312L143.672 97.4493L143.239 97.7033L143.184 98.2025L144.178 98.312ZM152.916 93.1904L153.903 93.3514L154.245 91.2519L152.41 92.3276L152.916 93.1904ZM150.105 110.417L149.118 110.256L148.984 111.08L149.771 111.359L150.105 110.417ZM166.543 116.249L167.049 117.111L168.903 116.025L166.877 115.306L166.543 116.249ZM158.165 120.478L145.445 114.915L144.644 116.747L157.363 122.311L158.165 120.478ZM144.182 116.337L149.862 126.027L151.587 125.015L145.907 115.325L144.182 116.337ZM150.219 124.658L143.138 128.809L144.149 130.535L151.23 126.384L150.219 124.658ZM144.506 129.166L126.544 98.5227L124.818 99.5341L142.781 130.178L144.506 129.166ZM126.187 99.8911L133.268 95.7403L132.256 94.0149L125.175 98.1657L126.187 99.8911ZM131.899 95.3833L141.827 112.32L143.553 111.309L133.625 94.3719L131.899 95.3833ZM143.684 111.924L145.172 98.4216L143.184 98.2025L141.696 111.705L143.684 111.924ZM144.684 99.1748L153.421 94.0531L152.41 92.3276L143.672 97.4493L144.684 99.1748ZM151.929 93.0293L149.118 110.256L151.092 110.578L153.903 93.3514L151.929 93.0293ZM149.771 111.359L166.209 117.191L166.877 115.306L150.439 109.474L149.771 111.359ZM166.037 115.386L157.258 120.532L158.27 122.257L167.049 117.111L166.037 115.386Z" fill="black"/>
<path d="M178.77 111.823L178.448 112.77L178.454 112.772L178.77 111.823ZM173.102 107.905L172.327 108.536L172.334 108.545L173.102 107.905ZM170.751 93.5521L171.685 93.9075L171.688 93.9013L170.751 93.5521ZM174.875 87.947L175.482 88.7411L174.875 87.947ZM188.888 85.6033L188.572 86.552L188.888 85.6033ZM194.611 89.5615L193.839 90.1966L193.843 90.2017L194.611 89.5615ZM196.963 103.914L196.03 103.554L196.028 103.559L196.963 103.914ZM192.784 109.48L192.181 108.682L192.176 108.686L192.784 109.48ZM188.527 102.94L187.705 102.371L187.701 102.377L187.697 102.383L188.527 102.94ZM186.943 93.18L186.327 93.968L186.333 93.9726L186.339 93.9771L186.943 93.18ZM179.132 94.4864L179.962 95.043L179.97 95.0313L179.132 94.4864ZM180.715 104.247L180.088 105.025L180.094 105.03L180.1 105.035L180.715 104.247ZM185.889 111.322C183.446 111.731 181.185 111.575 179.087 110.875L178.454 112.772C180.892 113.585 183.486 113.752 186.219 113.295L185.889 111.322ZM179.093 110.877C177.034 110.176 175.298 108.977 173.871 107.265L172.334 108.545C173.992 110.534 176.034 111.948 178.448 112.77L179.093 110.877ZM173.878 107.273C172.493 105.572 171.569 103.44 171.134 100.837L169.161 101.167C169.644 104.055 170.69 106.525 172.327 108.536L173.878 107.273ZM171.134 100.837C170.705 98.2721 170.901 95.9713 171.685 93.9075L169.816 93.1967C168.888 95.637 168.682 98.3027 169.161 101.167L171.134 100.837ZM171.688 93.9013C172.474 91.7903 173.737 90.0775 175.482 88.7411L174.267 87.153C172.216 88.7227 170.729 90.7465 169.814 93.2029L171.688 93.9013ZM175.482 88.7411C177.239 87.3968 179.326 86.5131 181.769 86.1045L181.439 84.1319C178.706 84.589 176.307 85.5912 174.267 87.153L175.482 88.7411ZM181.769 86.1045C184.212 85.6959 186.473 85.8523 188.572 86.552L189.204 84.6547C186.767 83.8418 184.172 83.6748 181.439 84.1319L181.769 86.1045ZM188.572 86.552C190.657 87.2475 192.408 88.4564 193.839 90.1966L195.384 88.9264C193.719 86.9015 191.654 85.4717 189.204 84.6547L188.572 86.552ZM193.843 90.2017C195.257 91.8979 196.191 94.0096 196.62 96.5743L198.592 96.2444C198.113 93.3804 197.051 90.9269 195.379 88.9213L193.843 90.2017ZM196.62 96.5743C197.048 99.1341 196.841 101.452 196.03 103.554L197.896 104.274C198.851 101.798 199.072 99.1132 198.592 96.2444L196.62 96.5743ZM196.028 103.559C195.239 105.634 193.961 107.337 192.181 108.682L193.387 110.278C195.466 108.706 196.974 106.698 197.898 104.27L196.028 103.559ZM192.176 108.686C190.42 110.03 188.332 110.914 185.889 111.322L186.219 113.295C188.952 112.838 191.351 111.836 193.392 110.274L192.176 108.686ZM185.047 106.288C186.869 105.984 188.323 105.039 189.357 103.498L187.697 102.383C186.965 103.473 185.989 104.103 184.717 104.316L185.047 106.288ZM189.349 103.51C190.456 101.911 190.736 99.9052 190.355 97.6221L188.382 97.952C188.707 99.8981 188.427 101.328 187.705 102.371L189.349 103.51ZM190.355 97.6221C189.974 95.3462 189.077 93.5414 187.547 92.3828L186.339 93.9771C187.336 94.732 188.055 95.9986 188.382 97.952L190.355 97.6221ZM187.559 92.3919C186.105 91.2566 184.433 90.8339 182.611 91.1386L182.941 93.1112C184.212 92.8986 185.318 93.1792 186.327 93.968L187.559 92.3919ZM182.611 91.1386C180.764 91.4475 179.301 92.3898 178.293 93.9415L179.97 95.0313C180.665 93.9622 181.632 93.3301 182.941 93.1112L182.611 91.1386ZM178.301 93.9298C177.252 95.4945 177.015 97.4955 177.399 99.7889L179.371 99.459C179.037 97.4601 179.297 96.036 179.962 95.043L178.301 93.9298ZM177.399 99.7889C177.777 102.051 178.634 103.853 180.088 105.025L181.343 103.468C180.397 102.706 179.7 101.427 179.371 99.459L177.399 99.7889ZM180.1 105.035C181.553 106.17 183.225 106.593 185.047 106.288L184.717 104.316C183.446 104.528 182.341 104.248 181.331 103.459L180.1 105.035Z" fill="black"/>
<path d="M256.483 97.9762L255.588 98.4226L255.592 98.4299L256.483 97.9762ZM252.063 121.801L251.761 122.755L252.714 123.056L253.016 122.103L252.063 121.801ZM244.283 119.339L243.33 119.037L243.028 119.99L243.981 120.292L244.283 119.339ZM248.547 101.254L247.645 101.684L247.652 101.7L247.66 101.715L248.547 101.254ZM241.363 98.9801L240.887 98.1005L240.887 98.1007L241.363 98.9801ZM234.49 116.239L234.188 117.192L235.142 117.494L235.443 116.54L234.49 116.239ZM226.71 113.776L225.757 113.474L225.455 114.428L226.409 114.729L226.71 113.776ZM230.975 95.6918L230.072 96.1217L230.079 96.1372L230.087 96.1525L230.975 95.6918ZM223.79 93.4175L223.314 92.5379L223.314 92.5382L223.79 93.4175ZM216.917 110.676L216.616 111.629L217.569 111.931L217.871 110.978L216.917 110.676ZM209.092 108.199L208.139 107.897L207.837 108.851L208.79 109.152L209.092 108.199ZM217.175 82.6638L217.477 81.7104L216.524 81.4086L216.222 82.362L217.175 82.6638ZM225 85.1408L225.954 85.4426L226.256 84.4893L225.302 84.1875L225 85.1408ZM223.986 88.3442L223.033 88.0424L222.121 90.9245L224.572 89.155L223.986 88.3442ZM227.895 86.8123L228.032 87.8028L228.042 87.8015L228.051 87.8L227.895 86.8123ZM237.281 90.0854L236.556 90.7748L236.562 90.7809L237.281 90.0854ZM239.735 94.739L238.756 94.9415L239.096 96.5883L240.38 95.5027L239.735 94.739ZM249.543 93.6565C252.509 94.5955 254.478 96.1985 255.588 98.4226L257.378 97.5299C255.982 94.7318 253.526 92.8194 250.146 91.7497L249.543 93.6565ZM255.592 98.4299C256.726 100.658 256.856 103.344 255.832 106.581L257.738 107.185C258.877 103.587 258.806 100.335 257.374 97.5226L255.592 98.4299ZM255.832 106.581L251.109 121.499L253.016 122.103L257.738 107.185L255.832 106.581ZM252.364 120.848L244.585 118.385L243.981 120.292L251.761 122.755L252.364 120.848ZM245.236 119.64L249.626 105.774L247.719 105.171L243.33 119.037L245.236 119.64ZM249.626 105.774C250.201 103.957 250.197 102.261 249.435 100.794L247.66 101.715C248.107 102.577 248.187 103.693 247.719 105.171L249.626 105.774ZM249.45 100.824C248.741 99.3352 247.442 98.345 245.714 97.7982L245.111 99.7049C246.434 100.124 247.225 100.802 247.645 101.684L249.45 100.824ZM245.714 97.7982C243.986 97.251 242.347 97.3112 240.887 98.1005L241.839 99.8597C242.728 99.3786 243.789 99.2864 245.111 99.7049L245.714 97.7982ZM240.887 98.1007C239.456 98.8757 238.498 100.262 237.926 102.071L239.833 102.674C240.303 101.188 241.001 100.313 241.839 99.8594L240.887 98.1007ZM237.926 102.071L233.537 115.937L235.443 116.54L239.833 102.674L237.926 102.071ZM234.792 115.285L227.012 112.823L226.409 114.729L234.188 117.192L234.792 115.285ZM227.664 114.078L232.053 100.212L230.146 99.6083L225.757 113.474L227.664 114.078ZM232.053 100.212C232.628 98.3947 232.624 96.6987 231.862 95.231L230.087 96.1525C230.535 97.0145 230.614 98.1307 230.146 99.6083L232.053 100.212ZM231.878 95.2619C231.169 93.7726 229.869 92.7825 228.142 92.2357L227.538 94.1424C228.861 94.5613 229.652 95.2396 230.072 96.1217L231.878 95.2619ZM228.142 92.2357C226.413 91.6885 224.774 91.7486 223.314 92.5379L224.266 94.2971C225.155 93.8161 226.216 93.7239 227.538 94.1424L228.142 92.2357ZM223.314 92.5382C221.883 93.3131 220.926 94.6999 220.353 96.5084L222.26 97.112C222.73 95.6255 223.429 94.7506 224.266 94.2968L223.314 92.5382ZM220.353 96.5084L215.964 110.374L217.871 110.978L222.26 97.112L220.353 96.5084ZM217.219 109.723L209.394 107.246L208.79 109.152L216.616 111.629L217.219 109.723ZM210.045 108.501L218.128 82.9656L216.222 82.362L208.139 107.897L210.045 108.501ZM216.873 83.6172L224.699 86.0942L225.302 84.1875L217.477 81.7104L216.873 83.6172ZM224.047 84.8391L223.033 88.0424L224.94 88.646L225.954 85.4426L224.047 84.8391ZM224.572 89.155C225.562 88.4402 226.708 87.9865 228.032 87.8028L227.758 85.8218C226.132 86.0473 224.673 86.6148 223.401 87.5334L224.572 89.155ZM228.051 87.8C229.363 87.5922 230.757 87.7098 232.245 88.1808L232.848 86.2741C231.103 85.7215 229.395 85.5623 227.739 85.8246L228.051 87.8ZM232.245 88.1808C234.026 88.7448 235.453 89.6149 236.556 90.7748L238.005 89.3961C236.641 87.9621 234.911 86.9269 232.848 86.2741L232.245 88.1808ZM236.562 90.7809C237.694 91.95 238.422 93.3298 238.756 94.9415L240.714 94.5365C240.305 92.5566 239.397 90.834 237.999 89.39L236.562 90.7809ZM240.38 95.5027C241.578 94.4904 242.996 93.7964 244.654 93.4273L244.219 91.4751C242.266 91.9098 240.549 92.741 239.089 93.9753L240.38 95.5027ZM244.654 93.4273C246.283 93.0646 247.907 93.1387 249.543 93.6565L250.146 91.7497C248.182 91.1279 246.2 91.0341 244.219 91.4751L244.654 93.4273Z" fill="black"/>
<path d="M274.327 114.351L274.02 113.399L274.008 113.403L274.327 114.351ZM280.743 114.002L280.514 114.975L280.743 114.002ZM288.827 121.397L287.867 121.676L287.87 121.685L288.827 121.397ZM289.014 125.878L288.042 125.643L287.211 129.077L289.719 126.588L289.014 125.878ZM291.706 123.207L292.415 122.502L291.711 121.792L291.001 122.497L291.706 123.207ZM297.488 129.032L298.192 129.742L298.902 129.037L298.198 128.328L297.488 129.032ZM278.479 147.901L277.769 148.605L278.473 149.315L279.183 148.61L278.479 147.901ZM272.696 142.075L271.992 141.366L271.282 142.07L271.987 142.78L272.696 142.075ZM275.388 139.404L276.092 140.114L278.514 137.709L275.177 138.426L275.388 139.404ZM270.874 139.15L271.169 138.194L271.16 138.191L270.874 139.15ZM263.573 131.044L262.595 131.253L262.598 131.266L263.573 131.044ZM264.004 124.597L263.061 124.266L263.058 124.274L263.055 124.283L264.004 124.597ZM284.424 127.999L283.425 127.968L283.425 127.982L284.424 127.999ZM278.574 122.106L278.564 121.106L278.564 121.106L278.574 122.106ZM271.693 128.936L270.694 128.891L270.693 128.905L270.693 128.919L271.693 128.936ZM277.543 134.83L277.533 133.83L277.519 133.83L277.543 134.83ZM268.805 119.077C270.67 117.226 272.617 115.981 274.645 115.299L274.008 113.403C271.641 114.199 269.438 115.631 267.396 117.657L268.805 119.077ZM274.633 115.303C276.699 114.637 278.652 114.538 280.514 114.975L280.971 113.028C278.719 112.5 276.395 112.634 274.02 113.399L274.633 115.303ZM280.514 114.975C282.381 115.413 284.023 116.341 285.452 117.781L286.872 116.372C285.19 114.678 283.219 113.556 280.971 113.028L280.514 114.975ZM285.452 117.781C286.685 119.023 287.474 120.322 287.867 121.676L289.788 121.118C289.287 119.391 288.299 117.81 286.872 116.372L285.452 117.781ZM287.87 121.685C288.294 123.098 288.341 124.41 288.042 125.643L289.986 126.113C290.377 124.497 290.3 122.823 289.785 121.109L287.87 121.685ZM289.719 126.588L292.41 123.916L291.001 122.497L288.31 125.168L289.719 126.588ZM290.996 123.911L296.778 129.737L298.198 128.328L292.415 122.502L290.996 123.911ZM296.783 128.322L277.774 147.191L279.183 148.61L298.192 129.742L296.783 128.322ZM279.188 147.196L273.406 141.371L271.987 142.78L277.769 148.605L279.188 147.196ZM273.401 142.785L276.092 140.114L274.683 138.694L271.992 141.366L273.401 142.785ZM275.177 138.426C273.912 138.698 272.582 138.63 271.169 138.194L270.58 140.105C272.286 140.631 273.964 140.732 275.598 140.382L275.177 138.426ZM271.16 138.191C269.81 137.789 268.517 136.99 267.284 135.748L265.864 137.157C267.291 138.594 268.865 139.594 270.589 140.108L271.16 138.191ZM267.284 135.748C265.878 134.332 264.973 132.696 264.548 130.823L262.598 131.266C263.108 133.515 264.203 135.483 265.864 137.157L267.284 135.748ZM264.551 130.836C264.147 128.942 264.272 126.974 264.954 124.911L263.055 124.283C262.272 126.65 262.11 128.98 262.595 131.253L264.551 130.836ZM264.948 124.928C265.667 122.879 266.941 120.927 268.805 119.077L267.396 117.657C265.354 119.684 263.896 121.886 263.061 124.266L264.948 124.928ZM282.905 133.351C284.497 131.771 285.39 129.988 285.424 128.017L283.425 127.982C283.401 129.314 282.812 130.626 281.496 131.931L282.905 133.351ZM285.424 128.031C285.484 126.127 284.83 124.467 283.487 123.114L282.067 124.523C283.023 125.486 283.468 126.614 283.425 127.968L285.424 128.031ZM283.487 123.114C282.144 121.761 280.483 121.087 278.564 121.106L278.584 123.106C279.97 123.092 281.11 123.559 282.067 124.523L283.487 123.114ZM278.564 121.106C276.631 121.126 274.865 122.011 273.28 123.585L274.689 125.004C276.01 123.692 277.305 123.119 278.585 123.106L278.564 121.106ZM273.28 123.585C271.693 125.16 270.782 126.933 270.694 128.891L272.692 128.981C272.752 127.637 273.369 126.315 274.689 125.004L273.28 123.585ZM270.693 128.919C270.66 130.837 271.322 132.503 272.665 133.856L274.084 132.447C273.127 131.483 272.669 130.339 272.693 128.954L270.693 128.919ZM272.665 133.856C274.008 135.209 275.662 135.875 277.567 135.83L277.519 133.83C276.165 133.863 275.04 133.41 274.084 132.447L272.665 133.856ZM277.553 135.83C279.524 135.81 281.314 134.931 282.905 133.351L281.496 131.931C280.181 133.237 278.865 133.817 277.533 133.83L277.553 135.83Z" fill="black"/>
<path d="M312.722 186.74L313.589 186.243L311.722 186.763L312.722 186.74ZM310.956 191.992L310.179 191.362L310.173 191.37L310.956 191.992ZM299.096 193.566L298.497 194.367L298.498 194.368L299.096 193.566ZM291.208 170.869L290.978 169.895L290.005 170.126L290.235 171.099L291.208 170.869ZM323.998 163.108L324.971 162.878L324.741 161.904L323.768 162.135L323.998 163.108ZM327.049 186.21L326.15 185.773L326.146 185.78L327.049 186.21ZM316.335 190.127L316.766 189.225L316.759 189.221L316.752 189.218L316.335 190.127ZM312.623 174.235L312.393 173.262L311.42 173.492L311.65 174.465L312.623 174.235ZM315.409 182.257L314.802 183.051L314.806 183.054L315.409 182.257ZM320.547 181.041L319.66 180.579L319.655 180.589L319.651 180.599L320.547 181.041ZM319.489 172.61L320.462 172.379L320.232 171.406L319.259 171.637L319.489 172.61ZM302.554 186.089L301.951 186.886L301.954 186.888L302.554 186.089ZM307.915 184.77L307.031 184.303L307.026 184.312L307.022 184.321L307.915 184.77ZM306.784 175.617L307.757 175.386L307.527 174.413L306.554 174.644L306.784 175.617ZM299.544 177.33L299.314 176.357L298.341 176.588L298.571 177.561L299.544 177.33ZM311.722 186.763C311.762 188.529 311.247 190.046 310.179 191.362L311.732 192.622C313.109 190.926 313.771 188.943 313.722 186.718L311.722 186.763ZM310.173 191.37C309.125 192.689 307.776 193.542 306.09 193.941L306.551 195.888C308.664 195.387 310.405 194.292 311.739 192.614L310.173 191.37ZM306.09 193.941C303.609 194.529 301.51 194.118 299.693 192.764L298.498 194.368C300.834 196.109 303.551 196.597 306.551 195.888L306.09 193.941ZM299.694 192.765C297.905 191.428 296.573 189.196 295.796 185.912L293.85 186.373C294.694 189.94 296.21 192.657 298.497 194.367L299.694 192.765ZM295.796 185.912L292.181 170.638L290.235 171.099L293.85 186.373L295.796 185.912ZM291.438 171.842L324.228 164.081L323.768 162.135L290.978 169.895L291.438 171.842ZM323.025 163.338L326.518 178.098L328.465 177.638L324.971 162.878L323.025 163.338ZM326.518 178.098C327.274 181.291 327.1 183.818 326.15 185.773L327.948 186.647C329.165 184.144 329.286 181.109 328.465 177.638L326.518 178.098ZM326.146 185.78C325.211 187.745 323.626 189.002 321.281 189.557L321.741 191.503C324.627 190.82 326.735 189.197 327.952 186.64L326.146 185.78ZM321.281 189.557C319.531 189.971 318.045 189.835 316.766 189.225L315.904 191.03C317.665 191.87 319.63 192.003 321.741 191.503L321.281 189.557ZM316.752 189.218C315.445 188.618 314.391 187.642 313.589 186.243L311.854 187.238C312.845 188.966 314.2 190.248 315.918 191.036L316.752 189.218ZM311.65 174.465L312.888 179.697L314.834 179.236L313.596 174.005L311.65 174.465ZM312.888 179.697C313.226 181.126 313.826 182.305 314.802 183.051L316.017 181.462C315.547 181.103 315.115 180.423 314.834 179.236L312.888 179.697ZM314.806 183.054C315.854 183.848 317.118 184.015 318.463 183.696L318.002 181.75C317.105 181.962 316.487 181.818 316.013 181.459L314.806 183.054ZM318.463 183.696C319.808 183.378 320.863 182.662 321.444 181.483L319.651 180.599C319.388 181.132 318.899 181.538 318.002 181.75L318.463 183.696ZM321.435 181.502C322.015 180.387 322.041 179.05 321.701 177.611L319.754 178.072C320.033 179.248 319.939 180.044 319.66 180.579L321.435 181.502ZM321.701 177.611L320.462 172.379L318.516 172.84L319.754 178.072L321.701 177.611ZM319.259 171.637L312.393 173.262L312.853 175.208L319.72 173.583L319.259 171.637ZM299.964 183.446C300.311 184.914 300.938 186.119 301.951 186.886L303.158 185.291C302.649 184.906 302.197 184.196 301.91 182.985L299.964 183.446ZM301.954 186.888C303.036 187.7 304.33 187.88 305.712 187.553L305.252 185.606C304.329 185.825 303.672 185.677 303.154 185.289L301.954 186.888ZM305.712 187.553C307.109 187.222 308.187 186.454 308.808 185.22L307.022 184.321C306.703 184.953 306.159 185.391 305.252 185.606L305.712 187.553ZM308.799 185.238C309.424 184.057 309.481 182.67 309.128 181.178L307.182 181.639C307.463 182.825 307.36 183.68 307.031 184.303L308.799 185.238ZM309.128 181.178L307.757 175.386L305.811 175.847L307.182 181.639L309.128 181.178ZM306.554 174.644L299.314 176.357L299.775 178.303L307.015 176.59L306.554 174.644ZM298.571 177.561L299.964 183.446L301.91 182.985L300.517 177.1L298.571 177.561Z" fill="black"/>
<path d="M331.819 216.895L331.759 217.893L332.757 217.953L332.817 216.955L331.819 216.895ZM296.363 214.758L295.365 214.698L295.305 215.696L296.303 215.756L296.363 214.758ZM296.857 206.565L296.917 205.566L295.919 205.506L295.859 206.504L296.857 206.565ZM332.313 208.702L333.311 208.762L333.371 207.764L332.373 207.704L332.313 208.702ZM331.879 215.897L296.423 213.76L296.303 215.756L331.759 217.893L331.879 215.897ZM297.361 214.818L297.855 206.625L295.859 206.504L295.365 214.698L297.361 214.818ZM296.797 207.563L332.252 209.7L332.373 207.704L296.917 205.566L296.797 207.563ZM331.314 208.642L330.82 216.835L332.817 216.955L333.311 208.762L331.314 208.642Z" fill="black"/>
<path d="M297.616 253.376L296.674 253.04L296.375 253.879L297.174 254.273L297.616 253.376ZM303.855 235.879L304.797 236.215L305.16 235.198L304.118 234.914L303.855 235.879ZM299.706 236.081L299.262 235.185L299.246 235.193L299.231 235.202L299.706 236.081ZM298.315 243.841L299.257 244.177L299.472 243.575L299.016 243.127L298.315 243.841ZM295.381 252.069L294.823 252.899L295.891 253.617L296.323 252.405L295.381 252.069ZM291.727 248.167L292.59 247.663L292.584 247.651L291.727 248.167ZM290.075 242.941L289.078 243.025L290.075 242.941ZM294.864 230.94L294.199 230.193L294.864 230.94ZM300.997 228.031L301.16 229.018L300.997 228.031ZM314.758 232.887L315.508 232.226L315.5 232.217L314.758 232.887ZM317.666 239.021L316.679 239.178L316.679 239.178L317.666 239.021ZM313.02 252.193L312.351 251.45L312.351 251.45L313.02 252.193ZM307.054 255.06L306.891 254.073L306.879 254.076L307.054 255.06ZM304.684 247.131L303.742 246.795L303.406 247.737L304.348 248.073L304.684 247.131ZM308.332 246.903L308.824 247.774L308.332 246.903ZM310.764 240.228L311.702 239.883L311.699 239.875L311.696 239.868L310.764 240.228ZM308.134 237.456L308.608 236.575L307.583 236.024L307.192 237.12L308.134 237.456ZM300.164 253.376C299.48 253.132 298.778 252.833 298.057 252.479L297.174 254.273C297.957 254.658 298.73 254.988 299.492 255.26L300.164 253.376ZM298.558 253.712L304.797 236.215L302.913 235.543L296.674 253.04L298.558 253.712ZM304.118 234.914C302.343 234.431 300.695 234.475 299.262 235.185L300.151 236.977C301.029 236.542 302.147 236.451 303.593 236.844L304.118 234.914ZM299.231 235.202C297.862 235.941 296.906 237.098 296.367 238.611L298.251 239.282C298.636 238.202 299.278 237.449 300.182 236.961L299.231 235.202ZM296.367 238.611C295.975 239.708 295.853 240.786 296.065 241.818C296.278 242.855 296.814 243.769 297.615 244.554L299.016 243.127C298.457 242.579 298.146 242.01 298.024 241.415C297.901 240.816 297.954 240.114 298.251 239.282L296.367 238.611ZM297.373 243.505L294.439 251.733L296.323 252.405L299.257 244.177L297.373 243.505ZM295.939 251.239C294.558 250.311 293.444 249.123 292.59 247.663L290.864 248.672C291.867 250.389 293.189 251.801 294.823 252.899L295.939 251.239ZM292.584 247.651C291.728 246.233 291.221 244.64 291.071 242.857L289.078 243.025C289.253 245.094 289.847 246.986 290.871 248.684L292.584 247.651ZM291.071 242.857C290.922 241.089 291.18 239.245 291.869 237.313L289.986 236.641C289.213 238.808 288.902 240.939 289.078 243.025L291.071 242.857ZM291.869 237.313C292.702 234.979 293.926 233.115 295.529 231.687L294.199 230.193C292.316 231.871 290.916 234.031 289.986 236.641L291.869 237.313ZM295.529 231.687C297.128 230.262 298.997 229.374 301.16 229.018L300.835 227.044C298.305 227.461 296.086 228.512 294.199 230.193L295.529 231.687ZM301.16 229.018C303.312 228.663 305.624 228.908 308.114 229.796L308.786 227.912C306.031 226.93 303.375 226.626 300.835 227.044L301.16 229.018ZM308.114 229.796C310.608 230.686 312.561 231.947 314.015 233.557L315.5 232.217C313.788 230.321 311.536 228.893 308.786 227.912L308.114 229.796ZM314.007 233.548C315.457 235.193 316.342 237.063 316.679 239.178L318.654 238.863C318.257 236.367 317.203 234.149 315.508 232.226L314.007 233.548ZM316.679 239.178C317.016 241.296 316.781 243.529 315.937 245.895L317.821 246.567C318.761 243.929 319.051 241.356 318.654 238.863L316.679 239.178ZM315.937 245.895C315.115 248.201 313.914 250.042 312.351 251.45L313.689 252.936C315.53 251.278 316.902 249.144 317.821 246.567L315.937 245.895ZM312.351 251.45C310.791 252.855 308.979 253.727 306.891 254.074L307.218 256.047C309.68 255.638 311.845 254.598 313.689 252.936L312.351 251.45ZM306.879 254.076C304.79 254.448 302.558 254.229 300.164 253.376L299.492 255.26C302.162 256.212 304.748 256.488 307.23 256.045L306.879 254.076ZM304.348 248.073C305.914 248.632 307.436 248.558 308.824 247.774L307.841 246.033C307.016 246.498 306.106 246.577 305.02 246.189L304.348 248.073ZM308.824 247.774C310.168 247.015 311.106 245.818 311.659 244.268L309.775 243.596C309.361 244.758 308.709 245.542 307.841 246.033L308.824 247.774ZM311.659 244.268C312.191 242.775 312.222 241.298 311.702 239.883L309.825 240.573C310.167 241.504 310.167 242.496 309.775 243.596L311.659 244.268ZM311.696 239.868C311.151 238.457 310.082 237.368 308.608 236.575L307.66 238.337C308.809 238.954 309.493 239.714 309.831 240.589L311.696 239.868ZM307.192 237.12L303.742 246.795L305.626 247.467L309.076 237.792L307.192 237.12Z" fill="black"/>
<path d="M279.633 261.442L280.086 262.333L279.633 261.442ZM284.895 260.169L284.938 259.17L284.927 259.17L284.895 260.169ZM289.659 261.777L290.433 262.411L291.115 261.578L290.234 260.959L289.659 261.777ZM284.518 268.051L283.967 268.886L284.72 269.383L285.291 268.685L284.518 268.051ZM281.951 267.624L282.19 268.595L281.951 267.624ZM278.443 271.451L277.445 271.379L277.445 271.39L278.443 271.451ZM281.181 273.26L280.757 272.354L280.743 272.361L280.728 272.368L281.181 273.26ZM284.61 271.044L285.207 271.846L285.213 271.841L285.219 271.837L284.61 271.044ZM288.729 268.213L288.246 267.337L288.237 267.343L288.227 267.348L288.729 268.213ZM292.648 267.142L292.628 266.142L292.621 266.143L292.613 266.143L292.648 267.142ZM299.347 272.446L300.306 272.16L300.304 272.154L299.347 272.446ZM299.313 277.259L300.277 277.526L300.279 277.519L299.313 277.259ZM289.475 287.069L289.305 286.084L289.297 286.085L289.475 287.069ZM282.222 285.47L281.448 284.836L280.744 285.694L281.672 286.305L282.222 285.47ZM287.029 279.603L287.551 278.751L286.807 278.296L286.255 278.97L287.029 279.603ZM289.527 280.038L289.325 279.058L289.314 279.061L289.303 279.063L289.527 280.038ZM292.816 276.403L291.82 276.319L291.818 276.339L291.817 276.36L292.816 276.403ZM290.055 274.699L289.632 273.792L289.625 273.796L289.618 273.799L290.055 274.699ZM286.73 276.939L287.321 277.746L287.334 277.736L287.348 277.725L286.73 276.939ZM282.469 279.715L281.994 278.835L281.984 278.84L281.975 278.846L282.469 279.715ZM278.544 280.718L278.539 279.718L278.523 279.718L278.507 279.719L278.544 280.718ZM274.185 279.07L273.551 279.844L273.558 279.849L273.565 279.855L274.185 279.07ZM271.77 275.353L272.736 275.095L272.735 275.09L271.77 275.353ZM271.946 270.595L272.905 270.877L272.907 270.871L271.946 270.595ZM275.523 266.141C276.931 264.423 278.454 263.164 280.086 262.333L279.179 260.551C277.261 261.527 275.529 262.978 273.976 264.874L275.523 266.141ZM280.086 262.333C281.734 261.494 283.322 261.119 284.863 261.169L284.927 259.17C283.002 259.108 281.081 259.582 279.179 260.551L280.086 262.333ZM284.852 261.168C286.423 261.236 287.826 261.711 289.084 262.595L290.234 260.959C288.658 259.851 286.884 259.254 284.938 259.17L284.852 261.168ZM288.886 261.143L283.744 267.417L285.291 268.685L290.433 262.411L288.886 261.143ZM285.069 267.217C284.05 266.544 282.907 266.359 281.713 266.653L282.19 268.595C282.86 268.43 283.428 268.53 283.967 268.886L285.069 267.217ZM281.713 266.653C280.537 266.941 279.538 267.628 278.715 268.633L280.262 269.9C280.858 269.173 281.501 268.764 282.19 268.595L281.713 266.653ZM278.715 268.633C278.001 269.504 277.514 270.425 277.446 271.379L279.44 271.523C279.467 271.148 279.678 270.613 280.262 269.9L278.715 268.633ZM277.445 271.39C277.384 272.379 277.713 273.263 278.487 273.897L279.754 272.35C279.538 272.172 279.415 271.942 279.441 271.512L277.445 271.39ZM278.487 273.897C278.925 274.256 279.44 274.482 280.015 274.52C280.58 274.558 281.126 274.409 281.633 274.152L280.728 272.368C280.456 272.506 280.269 272.533 280.147 272.525C280.036 272.517 279.91 272.477 279.754 272.35L278.487 273.897ZM281.604 274.166C282.505 273.745 283.715 272.955 285.207 271.846L284.013 270.241C282.54 271.336 281.465 272.024 280.757 272.354L281.604 274.166ZM285.219 271.837C286.762 270.651 288.098 269.735 289.231 269.078L288.227 267.348C286.995 268.063 285.585 269.034 284.001 270.251L285.219 271.837ZM289.212 269.089C290.279 268.501 291.431 268.185 292.682 268.142L292.613 266.143C291.054 266.197 289.594 266.595 288.246 267.337L289.212 269.089ZM292.667 268.142C293.8 268.12 294.996 268.56 296.275 269.608L297.542 268.061C295.999 266.796 294.355 266.108 292.628 266.142L292.667 268.142ZM296.275 269.608C297.314 270.459 298.012 271.497 298.391 272.738L300.304 272.154C299.807 270.526 298.879 269.156 297.542 268.061L296.275 269.608ZM298.389 272.733C298.771 274.008 298.772 275.42 298.348 276.999L300.279 277.519C300.785 275.64 300.809 273.844 300.306 272.16L298.389 272.733ZM298.35 276.992C297.909 278.582 297.025 280.216 295.652 281.891L297.199 283.159C298.706 281.32 299.747 279.442 300.277 277.526L298.35 276.992ZM295.652 281.891C293.625 284.365 291.505 285.706 289.305 286.084L289.644 288.055C292.453 287.572 294.966 285.883 297.199 283.159L295.652 281.891ZM289.297 286.085C287.047 286.491 284.887 286.027 282.771 284.634L281.672 286.305C284.179 287.955 286.854 288.558 289.652 288.053L289.297 286.085ZM282.995 286.103L287.802 280.237L286.255 278.97L281.448 284.836L282.995 286.103ZM286.506 280.456C287.515 281.074 288.615 281.274 289.752 281.012L289.303 279.063C288.706 279.201 288.139 279.111 287.551 278.751L286.506 280.456ZM289.73 281.017C290.86 280.783 291.824 280.1 292.636 279.11L291.089 277.842C290.481 278.584 289.888 278.942 289.325 279.058L289.73 281.017ZM292.636 279.11C293.316 278.279 293.775 277.385 293.815 276.446L291.817 276.36C291.803 276.699 291.625 277.187 291.089 277.842L292.636 279.11ZM293.813 276.487C293.894 275.528 293.526 274.699 292.786 274.092L291.518 275.639C291.768 275.844 291.843 276.039 291.82 276.319L293.813 276.487ZM292.786 274.092C292.347 273.732 291.834 273.508 291.262 273.462C290.7 273.417 290.15 273.551 289.632 273.792L290.478 275.605C290.764 275.471 290.966 275.445 291.103 275.456C291.23 275.466 291.363 275.512 291.518 275.639L292.786 274.092ZM289.618 273.799C288.695 274.247 287.519 275.048 286.112 276.152L287.348 277.725C288.725 276.643 289.766 275.95 290.492 275.598L289.618 273.799ZM286.139 276.132C284.506 277.327 283.126 278.224 281.994 278.835L282.944 280.595C284.186 279.924 285.647 278.97 287.321 277.746L286.139 276.132ZM281.975 278.846C280.974 279.415 279.837 279.711 278.539 279.718L278.549 281.718C280.16 281.71 281.639 281.337 282.963 280.584L281.975 278.846ZM278.507 279.719C277.355 279.761 276.128 279.332 274.806 278.286L273.565 279.855C275.154 281.111 276.833 281.781 278.58 281.718L278.507 279.719ZM274.819 278.297C273.764 277.433 273.078 276.372 272.736 275.095L270.804 275.612C271.257 277.303 272.18 278.72 273.551 279.844L274.819 278.297ZM272.735 275.09C272.4 273.864 272.436 272.47 272.905 270.877L270.986 270.313C270.435 272.186 270.354 273.964 270.805 275.617L272.735 275.09ZM272.907 270.871C273.352 269.319 274.211 267.742 275.523 266.141L273.976 264.874C272.529 266.639 271.519 268.454 270.984 270.319L272.907 270.871Z" fill="black"/>
<path d="M257.388 283.506L257.529 284.496L257.388 283.506ZM262.779 284L263.142 283.068L263.132 283.064L262.779 284ZM266.77 287.059L267.298 287.908L268.212 287.34L267.578 286.47L266.77 287.059ZM259.879 291.338L259.088 291.951L259.64 292.664L260.406 292.188L259.879 291.338ZM257.588 290.106L257.5 291.102L257.588 290.106ZM253.032 292.596L252.111 292.206L252.107 292.216L253.032 292.596ZM255.039 295.192L254.931 294.197L254.915 294.199L254.899 294.202L255.039 295.192ZM259.001 294.201L259.306 295.153L259.314 295.15L259.321 295.148L259.001 294.201ZM263.813 292.851L263.638 291.866L263.628 291.868L263.617 291.87L263.813 292.851ZM267.867 293.101L268.171 292.148L268.164 292.146L268.157 292.144L267.867 293.101ZM272.497 300.283L273.496 300.321L273.497 300.316L272.497 300.283ZM270.912 304.827L271.738 305.391L271.742 305.385L270.912 304.827ZM258.434 310.938L258.592 309.951L258.584 309.95L258.434 310.938ZM252.085 307.084L251.558 306.235L250.615 306.82L251.295 307.697L252.085 307.084ZM258.528 303.083L259.297 302.444L258.741 301.774L258 302.233L258.528 303.083ZM260.753 304.3L260.877 303.308L260.866 303.306L260.855 303.305L260.753 304.3ZM265.039 301.921L264.123 301.52L264.114 301.539L264.107 301.558L265.039 301.921ZM262.975 299.417L262.867 298.423L262.859 298.423L262.852 298.424L262.975 299.417ZM259.105 300.464L259.404 301.419L259.42 301.413L259.436 301.408L259.105 300.464ZM254.176 301.717L254.011 300.731L254 300.733L253.989 300.735L254.176 301.717ZM250.137 301.4L250.455 300.452L250.44 300.447L250.425 300.443L250.137 301.4ZM246.543 298.434L245.694 298.962L245.698 298.969L245.703 298.976L246.543 298.434ZM245.457 294.137L246.454 294.204L246.455 294.199L245.457 294.137ZM247.158 289.689L247.975 290.266L247.979 290.261L247.158 289.689ZM251.981 286.628C253.868 285.456 255.716 284.756 257.529 284.496L257.246 282.516C255.116 282.822 253.008 283.636 250.926 284.929L251.981 286.628ZM257.529 284.496C259.359 284.234 260.983 284.391 262.427 284.935L263.132 283.064C261.329 282.384 259.359 282.213 257.246 282.516L257.529 284.496ZM262.416 284.931C263.881 285.502 265.056 286.404 265.962 287.648L267.578 286.47C266.443 284.912 264.958 283.775 263.142 283.068L262.416 284.931ZM266.242 286.209L259.351 290.489L260.406 292.188L267.298 287.908L266.242 286.209ZM260.67 290.726C259.922 289.761 258.9 289.217 257.675 289.11L257.5 291.102C258.188 291.162 258.693 291.44 259.088 291.951L260.67 290.726ZM257.675 289.11C256.469 289.003 255.302 289.331 254.198 290.016L255.254 291.715C256.053 291.219 256.794 291.04 257.5 291.102L257.675 289.11ZM254.198 290.016C253.241 290.611 252.484 291.326 252.111 292.206L253.953 292.986C254.099 292.64 254.471 292.201 255.254 291.715L254.198 290.016ZM252.107 292.216C251.731 293.133 251.757 294.076 252.284 294.925L253.983 293.87C253.835 293.632 253.793 293.374 253.957 292.976L252.107 292.216ZM252.284 294.925C252.583 295.407 252.997 295.787 253.529 296.008C254.052 296.226 254.617 296.262 255.18 296.182L254.899 294.202C254.597 294.245 254.411 294.209 254.299 294.162C254.195 294.119 254.089 294.041 253.983 293.87L252.284 294.925ZM255.147 296.186C256.136 296.078 257.537 295.721 259.306 295.153L258.695 293.248C256.947 293.81 255.707 294.113 254.931 294.197L255.147 296.186ZM259.321 295.148C261.164 294.524 262.724 294.088 264.008 293.831L263.617 291.87C262.22 292.149 260.572 292.613 258.68 293.253L259.321 295.148ZM263.987 293.835C265.187 293.623 266.379 293.695 267.577 294.058L268.157 292.144C266.664 291.692 265.154 291.598 263.638 291.866L263.987 293.835ZM267.563 294.054C268.642 294.398 269.632 295.2 270.505 296.605L272.204 295.55C271.151 293.855 269.817 292.674 268.171 292.148L267.563 294.054ZM270.505 296.605C271.213 297.746 271.54 298.954 271.498 300.251L273.497 300.316C273.552 298.614 273.115 297.018 272.204 295.55L270.505 296.605ZM271.498 300.245C271.447 301.575 270.993 302.913 270.082 304.27L271.742 305.385C272.827 303.77 273.43 302.078 273.496 300.321L271.498 300.245ZM270.086 304.264C269.156 305.627 267.792 306.888 265.952 308.031L267.007 309.73C269.027 308.475 270.618 307.034 271.738 305.391L270.086 304.264ZM265.952 308.031C263.235 309.718 260.796 310.303 258.592 309.951L258.277 311.926C261.091 312.375 264.015 311.588 267.007 309.73L265.952 308.031ZM258.584 309.95C256.323 309.608 254.428 308.472 252.875 306.471L251.295 307.697C253.136 310.068 255.474 311.502 258.285 311.927L258.584 309.95ZM252.613 307.934L259.055 303.932L258 302.233L251.558 306.235L252.613 307.934ZM257.758 303.722C258.514 304.632 259.49 305.176 260.651 305.295L260.855 303.305C260.245 303.243 259.738 302.975 259.297 302.444L257.758 303.722ZM260.628 305.292C261.773 305.436 262.907 305.1 263.994 304.425L262.939 302.726C262.124 303.232 261.448 303.379 260.877 303.308L260.628 305.292ZM263.994 304.425C264.906 303.858 265.629 303.16 265.97 302.284L264.107 301.558C263.984 301.874 263.658 302.279 262.939 302.726L263.994 304.425ZM265.955 302.322C266.341 301.441 266.261 300.537 265.755 299.724L264.056 300.779C264.227 301.053 264.235 301.263 264.123 301.52L265.955 302.322ZM265.755 299.724C265.456 299.242 265.043 298.863 264.516 298.636C263.999 298.412 263.435 298.361 262.867 298.423L263.083 300.411C263.397 300.377 263.596 300.417 263.722 300.472C263.839 300.522 263.951 300.609 264.056 300.779L265.755 299.724ZM262.852 298.424C261.834 298.551 260.462 298.929 258.774 299.52L259.436 301.408C261.089 300.828 262.297 300.508 263.098 300.409L262.852 298.424ZM258.806 299.51C256.875 300.114 255.279 300.518 254.011 300.731L254.342 302.703C255.734 302.469 257.424 302.038 259.404 301.419L258.806 299.51ZM253.989 300.735C252.858 300.951 251.686 300.864 250.455 300.452L249.82 302.349C251.347 302.86 252.867 302.985 254.364 302.699L253.989 300.735ZM250.425 300.443C249.321 300.111 248.298 299.309 247.384 297.892L245.703 298.976C246.802 300.679 248.175 301.854 249.849 302.358L250.425 300.443ZM247.393 297.906C246.674 296.748 246.366 295.523 246.454 294.204L244.459 294.07C244.342 295.816 244.759 297.456 245.694 298.962L247.393 297.906ZM246.455 294.199C246.533 292.931 247.017 291.623 247.975 290.266L246.341 289.113C245.215 290.708 244.565 292.365 244.458 294.075L246.455 294.199ZM247.979 290.261C248.901 288.935 250.223 287.72 251.981 286.628L250.926 284.929C248.987 286.134 247.446 287.525 246.337 289.118L247.979 290.261Z" fill="black"/>
<path d="M211.502 311.976L211.292 310.998L210.42 311.186L210.507 312.073L211.502 311.976ZM229.663 308.071L229.873 309.048L230.929 308.821L230.621 307.786L229.663 308.071ZM227.307 304.649L227.835 303.8L227.82 303.791L227.805 303.782L227.307 304.649ZM219.977 307.551L220.187 308.529L220.812 308.395L220.953 307.771L219.977 307.551ZM211.436 309.388L210.437 309.351L210.389 310.636L211.647 310.366L211.436 309.388ZM212.831 304.228L213.714 304.696L213.72 304.684L212.831 304.228ZM216.405 300.071L215.809 299.268L216.405 300.071ZM229.129 297.826L229.414 296.867L229.129 297.826ZM234.831 301.509L234.077 302.167L234.831 301.509ZM237.946 315.765L238.903 316.055L238.906 316.044L237.946 315.765ZM234.262 321.467L233.608 320.71L233.608 320.71L234.262 321.467ZM220.616 324.451L220.896 323.49L220.896 323.49L220.616 324.451ZM215.039 320.888L215.791 320.229L215.783 320.22L215.039 320.888ZM220.532 314.698L220.322 313.721L219.344 313.931L219.554 314.909L220.532 314.698ZM222.646 317.681L222.165 318.557L222.646 317.681ZM229.602 316.234L230.389 316.85L230.394 316.844L230.399 316.837L229.602 316.234ZM230.574 312.539L231.573 312.478L231.502 311.317L230.364 311.561L230.574 312.539ZM212.843 314.142C212.691 313.432 212.575 312.678 212.497 311.879L210.507 312.073C210.591 312.941 210.718 313.772 210.888 314.563L212.843 314.142ZM211.712 312.954L229.873 309.048L229.452 307.093L211.292 310.998L211.712 312.954ZM230.621 307.786C230.098 306.022 229.193 304.644 227.835 303.8L226.779 305.499C227.612 306.016 228.278 306.919 228.704 308.355L230.621 307.786ZM227.805 303.782C226.455 303.008 224.968 302.804 223.398 303.141L223.819 305.097C224.94 304.856 225.918 305.005 226.809 305.517L227.805 303.782ZM223.398 303.141C222.259 303.386 221.278 303.85 220.512 304.573C219.743 305.301 219.248 306.237 219.002 307.331L220.953 307.771C221.125 307.008 221.445 306.444 221.886 306.027C222.331 305.606 222.956 305.282 223.819 305.097L223.398 303.141ZM219.767 306.574L211.226 308.41L211.647 310.366L220.187 308.529L219.767 306.574ZM212.436 309.425C212.498 307.763 212.922 306.19 213.714 304.696L211.947 303.759C211.016 305.516 210.511 307.383 210.437 309.351L212.436 309.425ZM213.72 304.684C214.476 303.21 215.563 301.941 217.001 300.874L215.809 299.268C214.141 300.506 212.845 302.007 211.941 303.771L213.72 304.684ZM217.001 300.874C218.425 299.817 220.129 299.066 222.135 298.634L221.714 296.679C219.465 297.163 217.489 298.021 215.809 299.268L217.001 300.874ZM222.135 298.634C224.557 298.114 226.786 298.174 228.844 298.785L229.414 296.867C226.996 296.149 224.423 296.097 221.714 296.679L222.135 298.634ZM228.844 298.785C230.897 299.394 232.636 300.516 234.077 302.167L235.584 300.852C233.898 298.921 231.836 297.587 229.414 296.867L228.844 298.785ZM234.077 302.167C235.512 303.81 236.521 305.905 237.076 308.489L239.032 308.069C238.417 305.21 237.277 302.791 235.584 300.852L234.077 302.167ZM237.076 308.489C237.633 311.078 237.589 313.403 236.985 315.487L238.906 316.044C239.617 313.59 239.646 310.923 239.032 308.069L237.076 308.489ZM236.988 315.475C236.353 317.573 235.229 319.311 233.608 320.71L234.916 322.224C236.828 320.572 238.16 318.508 238.903 316.055L236.988 315.475ZM233.608 320.71C231.985 322.112 229.962 323.087 227.507 323.615L227.927 325.571C230.665 324.982 233.005 323.873 234.916 322.224L233.608 320.71ZM227.507 323.615C225.113 324.13 222.916 324.078 220.896 323.49L220.337 325.411C222.716 326.103 225.253 326.146 227.927 325.571L227.507 323.615ZM220.896 323.49C218.88 322.904 217.185 321.822 215.791 320.229L214.286 321.546C215.93 323.424 217.953 324.717 220.337 325.411L220.896 323.49ZM215.783 320.22C214.366 318.64 213.378 316.627 212.843 314.142L210.888 314.563C211.484 317.334 212.611 319.678 214.294 321.555L215.783 320.22ZM219.554 314.909C219.904 316.534 220.768 317.79 222.165 318.557L223.128 316.804C222.298 316.348 221.752 315.616 221.51 314.488L219.554 314.909ZM222.165 318.557C223.517 319.3 225.029 319.468 226.638 319.121L226.218 317.166C225.012 317.426 224.002 317.284 223.128 316.804L222.165 318.557ZM226.638 319.121C228.188 318.788 229.46 318.038 230.389 316.85L228.814 315.617C228.203 316.398 227.359 316.921 226.218 317.166L226.638 319.121ZM230.399 316.837C231.311 315.631 231.674 314.149 231.573 312.478L229.576 312.6C229.656 313.901 229.37 314.883 228.804 315.631L230.399 316.837ZM230.364 311.561L220.322 313.721L220.742 315.676L230.785 313.516L230.364 311.561Z" fill="black"/>
<path d="M196.664 321.544L197.47 322.136L197.477 322.126L196.664 321.544ZM191.67 325.588L191.284 324.665L191.67 325.588ZM180.919 324.404L181.513 323.6L181.506 323.594L180.919 324.404ZM177.992 320.907L178.903 320.495L177.541 317.486L177.005 320.745L177.992 320.907ZM175.975 333.175L175.813 334.161L176.8 334.324L176.962 333.337L175.975 333.175ZM167.876 331.843L166.889 331.681L166.727 332.668L167.714 332.83L167.876 331.843ZM173.637 296.794L173.8 295.807L172.813 295.645L172.651 296.631L173.637 296.794ZM181.737 298.125L182.724 298.287L182.886 297.3L181.899 297.138L181.737 298.125ZM181.114 301.914L180.127 301.752L179.542 305.314L181.877 302.561L181.114 301.914ZM184.88 299.42L185.202 300.367L185.21 300.364L184.88 299.42ZM195.594 301.716L196.264 300.974L196.254 300.965L195.594 301.716ZM199.023 307.193L199.982 306.908L199.979 306.9L199.976 306.891L199.023 307.193ZM180.483 316.404L181.312 315.843L181.304 315.832L180.483 316.404ZM188.677 317.751L189.272 318.555L189.272 318.555L188.677 317.751ZM190.25 308.183L191.086 307.634L191.078 307.622L191.07 307.611L190.25 308.183ZM182.056 306.836L182.65 307.641L182.661 307.632L182.056 306.836ZM198.368 314.479C197.942 317.072 197.094 319.222 195.85 320.963L197.477 322.126C198.929 320.093 199.875 317.642 200.342 314.804L198.368 314.479ZM195.857 320.953C194.574 322.703 193.049 323.928 191.284 324.665L192.055 326.511C194.19 325.619 195.995 324.148 197.47 322.136L195.857 320.953ZM191.284 324.665C189.515 325.404 187.642 325.615 185.639 325.286L185.315 327.259C187.67 327.646 189.924 327.401 192.055 326.511L191.284 324.665ZM185.639 325.286C184.044 325.023 182.676 324.457 181.513 323.6L180.326 325.209C181.766 326.271 183.436 326.95 185.315 327.259L185.639 325.286ZM181.506 323.594C180.3 322.721 179.443 321.688 178.903 320.495L177.081 321.32C177.778 322.86 178.873 324.158 180.333 325.214L181.506 323.594ZM177.005 320.745L174.989 333.012L176.962 333.337L178.979 321.069L177.005 320.745ZM176.138 332.188L168.038 330.856L167.714 332.83L175.813 334.161L176.138 332.188ZM168.863 332.005L174.624 296.956L172.651 296.631L166.889 331.681L168.863 332.005ZM173.475 297.78L181.575 299.112L181.899 297.138L173.8 295.807L173.475 297.78ZM180.75 297.963L180.127 301.752L182.101 302.076L182.724 298.287L180.75 297.963ZM181.877 302.561C182.714 301.573 183.811 300.839 185.202 300.367L184.559 298.473C182.859 299.05 181.445 299.978 180.351 301.267L181.877 302.561ZM185.21 300.364C186.541 299.899 188.056 299.788 189.784 300.072L190.108 298.098C188.109 297.77 186.248 297.882 184.55 298.476L185.21 300.364ZM189.784 300.072C191.786 300.401 193.494 301.201 194.933 302.467L196.254 300.965C194.521 299.44 192.463 298.486 190.108 298.098L189.784 300.072ZM194.924 302.458C196.361 303.756 197.413 305.424 198.07 307.495L199.976 306.891C199.223 304.514 197.989 302.531 196.264 300.974L194.924 302.458ZM198.064 307.477C198.682 309.56 198.794 311.887 198.368 314.479L200.342 314.804C200.809 311.964 200.699 309.326 199.982 306.908L198.064 307.477ZM178.578 311.177C178.214 313.39 178.536 315.358 179.663 316.976L181.304 315.832C180.542 314.739 180.251 313.331 180.551 311.502L178.578 311.177ZM179.655 316.964C180.722 318.542 182.225 319.503 184.106 319.813L184.431 317.839C183.091 317.619 182.071 316.965 181.312 315.843L179.655 316.964ZM184.106 319.813C185.987 320.122 187.729 319.695 189.272 318.555L188.083 316.946C186.969 317.77 185.771 318.059 184.431 317.839L184.106 319.813ZM189.272 318.555C190.826 317.406 191.738 315.653 192.1 313.449L190.127 313.124C189.825 314.962 189.112 316.185 188.083 316.946L189.272 318.555ZM192.1 313.449C192.463 311.242 192.163 309.272 191.086 307.634L189.414 308.732C190.154 309.857 190.429 311.289 190.127 313.124L192.1 313.449ZM191.07 307.611C189.973 306.038 188.46 305.076 186.58 304.766L186.255 306.74C187.596 306.96 188.637 307.618 189.43 308.755L191.07 307.611ZM186.58 304.766C184.698 304.457 182.967 304.887 181.451 306.04L182.661 307.632C183.74 306.812 184.916 306.52 186.255 306.74L186.58 304.766ZM181.462 306.032C179.876 307.203 178.942 308.964 178.578 311.177L180.551 311.502C180.852 309.673 181.578 308.432 182.65 307.64L181.462 306.032Z" fill="black"/>
</svg>
